# xmcd
#
# Track frame offsets: 
#        150
#        11997
#        24780
#        36847
#        49907
#        61330
#        74567
#        86422
#        98715
#        110877
#        123590
#        136347
#        148557
#        160815
#        173680
#        185310
#        197247
#        208867
#        219777
#        232837
#        244737
#        257185
#        269930
#        282432
#        296517
#        309030
#        322122
#        334827
#
# Disc length: 4624 seconds
#
# Revision: 4
# Processed by: cddbd v1.5.2PL0 Copyright (c) Steve Scherf et al.
# Submitted via: ExactAudioCopyFreeDBPlugin 1.0
#
DISCID=aa120e1c
DTITLE=Various Artist - A Shot in the Dark:  Tennessee Jive - Country
DTITLE=on Nashville Independent Labels, 1945-1955
DYEAR=2000
DGENRE=Country
TTITLE0=Brad Brady and His Tennesseans - Zeb's Mountain Boogie
TTITLE1=The Turner Bros. - Guitar Reel
TTITLE2=Pete Pyle - Talking the Blues
TTITLE3=Pete Pyle - Living in Sorrow
TTITLE4=Sheb Wooley - Oklahoma Honky Tonk Gal
TTITLE5=The Texas Troubadors - That's All She Wrote
TTITLE6=Clyde Moody - I'm So Lonesome
TTITLE7=Minnie Pearl with Frankie "Pee Wee" King and the Golden West Cow
TTITLE7=boys - Jealous Hearted Me
TTITLE8=Frankie "Pee Wee" King and the Golden West Cowboys - That Cheap 
TTITLE8=Look in Your Eye
TTITLE9=Chet Atkins - Guitar Blues
TTITLE10=The York Bros. - Hamtramck Mama
TTITLE11=The York Bros. - My Tears Will Never Make You Change
TTITLE12=Johnny Barfield - Doin' the Boogie Woogie
TTITLE13=Ramblin' Tommy Scott - Sweet Woman Blues
TTITLE14=Zeb Turner - Chattanooga Boogie
TTITLE15=Zeb Turner - Ain't Had No Lovin'
TTITLE16=Zeb Turner - Coal Miner's Blues
TTITLE17=Bill Nettles - High Falutin' Mama
TTITLE18=The York Bros. - Blue Ridge Mountain Blues
TTITLE19=Merl Lindsay and His Oklahoma Night Riders - Safety Pin Rag
TTITLE20=Leon Payne - Don't Try it
TTITLE21=Leon Payne and Jack Rhodes' Lone Star Buddies - Lifetime to Reg
TTITLE21=ret
TTITLE22=Zeke Clements and His Western Swing Band - Brown's Ferry Boog
TTITLE22=ie
TTITLE23=Smiley Burnette - Swamp Woman Blues
TTITLE24=Tommy Scott - Alley Cat Blues
TTITLE25=Leon Payne - Empty Arms
TTITLE26=Leon Payne and Jack Rhodes' Lone Star Buddies - Lipstick Trail
TTITLE27=Zeb Turner - Big Fat Papa
EXTD=Volume #1 of a 8-CD Box Set -BCD 15854
EXTT0=
EXTT1=
EXTT2=
EXTT3=
EXTT4=
EXTT5=
EXTT6=
EXTT7=
EXTT8=
EXTT9=
EXTT10=
EXTT11=
EXTT12=
EXTT13=
EXTT14=
EXTT15=
EXTT16=
EXTT17=
EXTT18=
EXTT19=
EXTT20=
EXTT21=
EXTT22=
EXTT23=
EXTT24=
EXTT25=
EXTT26=
EXTT27=
PLAYORDER=
